<?xml version="1.0" encoding="utf-8"?>
<!-- Generator: Adobe Illustrator 15.1.0, SVG Export Plug-In . SVG Version: 6.00 Build 0)  -->
<!DOCTYPE svg PUBLIC "-//W3C//DTD SVG 1.1//EN" "http://www.w3.org/Graphics/SVG/1.1/DTD/svg11.dtd">
<svg version="1.1" id="Layer_1" xmlns="http://www.w3.org/2000/svg" xmlns:xlink="http://www.w3.org/1999/xlink" x="0px" y="0px"
	 width="495px" height="390px" viewBox="0 0 495 390" enable-background="new 0 0 495 390" xml:space="preserve">
<g>
	<g id="Selected_Items">
		<path fill-rule="evenodd" clip-rule="evenodd" fill="#9DA0A7" d="M221.949,81.459c-6.647,2.128-10.72,5.544-12.219,10.246
			c-9.005-0.313-12.993,3.505-11.964,11.455c-6.277,0.512-9.417,4.161-9.419,10.946c-12.077-10.533-25.314-16.134-39.712-16.8
			c-4.914-0.268-8.52,0.485-10.819,2.259c-1.119,0.867-1.925,1.981-2.418,3.341c2.056,4.213,4.771,7.438,8.146,9.673
			c1.693,1.293,3.051,4.263,4.073,8.91l3.055,8.91c-5.738,2.346-9.514,6.981-11.328,13.905
			c-13.614-4.824-25.451-13.192-35.511-25.106c-5.027-7.349-7.913-14.392-8.656-21.128c-1.672-6.643-5.575-11.056-11.709-13.237
			c-6.848-0.674-12.681,3.124-17.501,11.392c-10.604,17.952-19.959,38.847-28.066,62.686c-6.872,29.069-4.411,57.496,7.383,85.277
			c8.936,24.422,26.67,47.588,53.203,69.496c7.122,4.828,11.757,5.984,13.905,3.467c2.146-2.516,0.693-5.877-4.359-10.086
			c-5.046-4.211-7.464-7.181-7.255-8.91c1.692-0.44,2.71-1.882,3.055-4.328c0.044-4.549-3.859-10.743-11.71-18.582
			c6.203,3.395,9.936,3.395,11.201,0c0.794-4.463-3.024-10.572-11.456-18.329c6.968,2.499,10.532,2.499,10.692,0
			c1.17-2.463,0.067-6.875-3.31-13.236c3.034,1.909,5.41,1.569,7.128-1.019c0.824-2.41-0.024-7.162-2.545-14.256
			c3.139,5.347,6.279,7.214,9.418,5.6c1.345-1.302,1.345-5.971,0-14.001c1.569,3.929,3.69,5.201,6.364,3.818
			c1.581-6.963,4.381-8.745,8.4-5.345l1.368,5.918c0.048,0.523,0.186,1.098,0.414,1.72c-4.865,4.984-4.865,9.058,0,12.218
			c-0.371-1.942,1.241-3.555,4.836-4.836c0.067,2.124,0.28,4.056,0.637,5.791c0.504,2.547,1.31,4.689,2.418,6.427
			c0.831,1.716,2.273,2.819,4.328,3.311c1.41,0.641,2.513,2.507,3.309,5.6c0.828,1.888,0.828,4.604,0,8.146
			c-1.67,3.822-0.652,7.047,3.056,9.673l5.6,3.056c-1.299,4.552-1.299,8.455,0,11.71c0.645,1.696,2.935,3.393,6.873,5.091
			c-0.945,2.934-0.945,6.497,0,10.691c1.042,2.533,3.417,4.398,7.128,5.6c-0.899,3.389-0.56,7.291,1.018,11.711
			c0.926,2.506,3.471,4.287,7.637,5.344c-0.385,4.867,0.909,8.666,3.882,11.393c2.185,2.016,4.54,3.225,7.064,3.629
			c0.445,3.51,2.143,6.395,5.091,8.654l6.619,3.053c1.782,5.516,4.922,8.994,9.419,10.438c5.006,1.568,10.013,1.568,15.019,0
			c3.214,2.229,7.033,3.246,11.455,3.057c4.497,2.586,8.995,2.586,13.492,0c4.922,1.895,9.844,1.895,14.765,0
			c3.903,0.881,7.807-0.137,11.71-3.057c11.498,0.92,18.966-2.814,22.401-11.199c5.939-2.547,9.843-6.449,11.71-11.711
			c6.644-4.242,9.783-8.484,9.419-12.729c6.819-5.814,9.79-12.518,8.91-20.109c5.076-4.332,7.452-9.679,7.127-16.036
			c5.254-2.893,7.97-8.323,8.146-16.293c6.578-4.424,9.039-11.382,7.382-20.874c0.083-3.717,1.696-6.518,4.837-8.4
			c4.232-2.566,6.353-6.639,6.363-12.219c2.628-0.411,4.919,0.521,6.874,2.801c0.488-4.332-1.208-7.726-5.091-10.183h3.309
			c0.041-4.413-1.571-8.825-4.837-13.238c1.867-1.018,4.413-1.018,7.637,0c1.528-0.587,3.056-0.163,4.583,1.273
			c-1.641,2.873-1.641,5.419,0,7.637c1.294,1.669,3.924,1.669,7.891,0c-2.471,3.31-2.471,6.618,0,9.928
			c1.77,1.517,4.146,1.517,7.129,0c-1.853,3.117-1.853,6.851,0,11.201c2.461-1.968,4.921-2.562,7.382-1.782
			c-2.958,3.056-4.739,6.109-5.347,9.164c0.342,6.116,3.312,7.304,8.91,3.564c-5.01,9.119-7.81,15.398-8.4,18.837
			c-0.38,1.871,2.675,2.804,9.165,2.801c-10.878,10.132-12.405,17.261-4.583,21.383l-7.127,5.345
			c-5.881,5.25-7.918,8.898-6.109,10.945c1.516,2.617,4.995,2.617,10.436,0c22.93-17.561,38.5-34.022,46.713-49.383
			c14.385-26.838,20.855-53.576,19.41-80.219c-1.436-26.64-9.646-52.254-24.629-76.846c-9.885-18.677-18.031-27.417-24.438-26.22
			c-5.627,1.092-9.784,4.826-12.474,11.201c-2.312,10.608-6.215,19.941-11.71,28.002c-8.553,9.392-19.786,16.488-33.697,21.288
			c-1.623-5.534-5.24-9.405-10.852-11.615c0.464-7.956,1.907-13.301,4.327-16.038c6.993-7.26,10.303-11.757,9.929-13.492
			c-3.929-2.483-8.767-3.755-14.51-3.818c-13.26,0.317-25.87,6.925-37.834,19.824c-1.517-7.22-4.688-11.792-9.516-13.715
			c0.258-6.914-3.646-10.309-11.71-10.183c-1.844-4.55-5.642-8.125-11.391-10.723c25.075-0.524,50.318-1.383,75.732-2.577
			c29.697-1.063,54.092-9.337,73.187-24.82l11.963,18.137c21.479,33.215,35.5,61.429,42.068,84.642
			c6.039,21.354,6.549,43.48,1.525,66.377c-1.779,17.664-10.541,35.483-26.283,53.458c-17.508,21.214-48.628,42.426-93.36,63.641
			c-38.976,21.041-75.888,32.645-110.734,34.811c-22.824-3.334-42.128-7.725-57.913-13.174
			c-42.12-14.389-77.886-31.965-107.298-52.725c-29.41-20.771-49.054-46.578-58.931-77.419c-8.366-25.54-6.52-53.775,5.537-84.705
			c14.828-38.025,30.038-68.296,45.63-90.815c15.622,14.923,39.38,23.473,71.277,25.646H221.949z M391.997,20.365l20.683,23.674
			c-16.34,12.312-40.693,20.374-73.059,24.184c-26.279,2.066-55.236,3.297-86.868,3.691c-38.002,0.063-74.956-0.68-110.863-2.228
			c-26.108-2.036-47.746-9.354-64.913-21.956l17.628-25.965c16.231,11.32,37.975,16.411,65.231,15.274h112.834
			c61.509-1.314,97.509-4.284,107.999-8.91C384.612,26.127,388.389,23.538,391.997,20.365z"/>
		<path fill-rule="evenodd" clip-rule="evenodd" fill="#222021" d="M270.89,80.982c-11.064,0.222-22.096,0.381-33.094,0.477h-15.847
			h-78.659c-31.897-2.174-55.656-10.723-71.277-25.646c-15.593,22.519-30.803,52.79-45.63,90.815
			c-12.057,30.93-13.903,59.165-5.537,84.705c9.877,30.841,29.521,56.647,58.931,77.419c29.412,20.76,65.178,38.336,107.298,52.725
			c15.785,5.449,35.088,9.84,57.913,13.174c34.847-2.166,71.759-13.77,110.734-34.811c44.732-21.215,75.853-42.427,93.36-63.641
			c15.742-17.975,24.504-35.794,26.283-53.458c5.023-22.896,4.514-45.022-1.525-66.377c-6.568-23.213-20.59-51.427-42.068-84.642
			l-11.963-18.137c-19.095,15.483-43.489,23.756-73.187,24.82C321.208,79.6,295.965,80.458,270.89,80.982z M294.245,152.8
			c3.631,0.583,6.939,2.449,9.928,5.601c10.405,10.063,15.326,19.482,14.766,28.256c-0.323,8.313-5.244,12.641-14.766,12.982
			c-15.626-1.12-25.343,0.417-29.146,4.613c-0.38-1.876,1.189-3.753,4.709-5.632c5.226-2.328,11.758-3.345,19.602-3.055
			c7.896-0.021,11.376-2.566,10.438-7.637c-3.867-14.619-8.025-21.407-12.474-20.364c-2.307,1.027-4.46,2.046-6.46,3.054
			c-1.986,0.997-3.82,1.983-5.505,2.96c-3.832,2.227-6.897,4.4-9.195,6.523c-1.098,1.012-2.021,2.009-2.77,2.991
			c-0.304,0.319-0.601,0.638-0.89,0.954c-5.469,6.035-8.3,11.805-8.497,17.311c-1.448,0.182-3.019,0.5-4.709,0.955
			c1.846-1.479,3.15-3.812,3.913-7.001l1.464-10.31C277.137,174.007,287.001,163.272,294.245,152.8z M331.412,145.927
			c7.584-1.237,14.596-2.966,21.033-5.186c13.911-4.8,25.145-11.896,33.697-21.288c5.495-8.061,9.398-17.394,11.71-28.002
			c2.689-6.375,6.847-10.108,12.474-11.201c6.406-1.197,14.553,7.543,24.438,26.22c14.982,24.592,23.193,50.207,24.629,76.846
			c1.445,26.643-5.025,53.381-19.41,80.219c-8.213,15.36-23.783,31.822-46.713,49.383c-5.44,2.617-8.92,2.617-10.436,0
			c-1.809-2.047,0.229-5.695,6.109-10.945l7.127-5.345c-7.822-4.122-6.295-11.251,4.583-21.383c-6.49,0.003-9.545-0.93-9.165-2.801
			c0.591-3.438,3.391-9.718,8.4-18.837c-5.599,3.739-8.568,2.552-8.91-3.564c0.607-3.055,2.389-6.108,5.347-9.164
			c-2.461-0.779-4.921-0.186-7.382,1.782c-1.853-4.351-1.853-8.084,0-11.201c-2.982,1.517-5.359,1.517-7.129,0
			c-2.471-3.31-2.471-6.618,0-9.928c-3.967,1.669-6.597,1.669-7.891,0c-1.641-2.218-1.641-4.764,0-7.637
			c-1.527-1.437-3.055-1.86-4.583-1.273c-2.226-21.191-11.22-34.938-26.983-41.238c-0.277-4.395-2.229-7.449-5.854-9.164
			c1.974-0.817,3.501-1.814,4.582-2.991c14.499-2.961,27.206-8.264,38.12-15.91c17.783-12.386,27.309-26.79,28.574-43.212
			l-7.636,17.628c-8.112,16.442-27.204,29.149-57.276,38.121h-6.619l5.092-3.818C332.99,150.612,329.682,148.576,331.412,145.927z
			 M151.182,171.893c-1.505,0.221-2.693,2.342-3.564,6.364c-8.749-0.719-15.453,11.245-20.111,35.894
			c1.126,1.204,3.756,1.204,7.892,0c-3.631,2.12-4.565,4.243-2.801,6.363c-2.279,0.687-3.351,1.979-3.213,3.882l-1.368-5.918
			c-4.02-3.4-6.819-1.618-8.4,5.345c-2.674,1.383-4.795,0.11-6.364-3.818c1.345,8.03,1.345,12.699,0,14.001
			c-3.14,1.614-6.279-0.253-9.418-5.6c2.521,7.094,3.37,11.846,2.545,14.256c-1.718,2.588-4.094,2.928-7.128,1.019
			c3.376,6.361,4.48,10.773,3.31,13.236c-0.16,2.499-3.725,2.499-10.692,0c8.431,7.757,12.25,13.866,11.456,18.329
			c-1.265,3.395-4.998,3.395-11.201,0c7.852,7.839,11.754,14.033,11.71,18.582c-0.345,2.445-1.363,3.888-3.055,4.328
			c-0.209,1.729,2.209,4.699,7.255,8.91c5.053,4.209,6.506,7.57,4.359,10.086c-2.148,2.518-6.784,1.361-13.905-3.467
			c-26.533-21.908-44.268-45.074-53.203-69.496c-11.793-27.781-14.254-56.208-7.383-85.277
			c8.107-23.839,17.461-44.734,28.066-62.686c4.82-8.269,10.653-12.066,17.501-11.392c6.134,2.182,10.037,6.594,11.709,13.237
			c0.743,6.737,3.628,13.78,8.656,21.128c10.061,11.914,21.897,20.282,35.511,25.106c7.256,2.566,15.02,4.126,23.292,4.677
			c-6.167,2.28-9.953,5.154-11.359,8.624c-15.04-2.292-27.885-6.778-38.534-13.46c-13.576-9.89-22.995-23.297-28.257-40.221
			c3.597,17.388,11.743,30.964,24.438,40.729c11.315,8.221,25.231,13.567,41.748,16.038c0.613,2.001,3.159,3.358,7.637,4.073
			L151.182,171.893z M413.508,21.638c22.508,25.406,40.412,52.029,53.713,79.869c11.318,25.544,19.168,48.03,23.547,67.458
			c5.826,22.216,5.508,44.745-0.955,67.586c-7.045,30.335-20.875,52.249-41.494,65.74c-28.621,20.328-60.93,38.891-96.923,55.686
			c-44.955,19.156-79.215,29.424-102.78,30.803c-29.011,0.375-54.255-4.016-75.732-13.174c-48.512-19.77-86.506-40.24-113.98-61.414
			C27.55,288.614,9.307,261.312,4.172,232.287c-4.229-22.505-4.229-44.419,0-65.74c4.891-25.724,16.112-53.98,33.666-84.769
			C52.645,52.306,71.779,25.196,95.242,0.446c13.772,16.62,30.765,25.02,50.976,25.201c39.283,0.339,77.978,0.317,116.081-0.063
			c36.059-0.481,68.218-2.009,96.479-4.582c10.372-1.069,22.23-8.069,35.575-21.001L413.508,21.638z M391.997,20.365
			c-3.608,3.173-7.385,5.762-11.327,7.765c-10.49,4.626-46.49,7.596-107.999,8.91H159.837c-27.257,1.137-49-3.954-65.231-15.274
			L76.977,47.73c17.167,12.601,38.805,19.92,64.913,21.956c35.907,1.548,72.861,2.291,110.863,2.228
			c31.632-0.394,60.589-1.625,86.868-3.691c32.365-3.81,56.719-11.871,73.059-24.184L391.997,20.365z M285.113,148.282
			c-5.199,1.006-10.726,0.052-16.579-2.864c1.16-4.735,3.961-6.517,8.401-5.346C281.569,141.852,284.296,144.589,285.113,148.282z
			 M209.062,148.918c1.379-6.268,5.335-8.962,11.869-8.083C223.799,145.155,219.843,147.85,209.062,148.918z M201.489,153.437
			c2.863,11.473,11.995,21.294,27.397,29.466c0.539,2.396,0.857,5.007,0.955,7.828c0.649,6.326,3.237,10.368,7.763,12.123
			c-2.058-0.451-4.477-0.652-7.254-0.604c-4.634,0.501-8.537,1.646-11.71,3.436c-7.731-3.684-17.999-4.851-30.802-3.5
			c-8.283,0.34-12.695-5.768-13.238-18.328c-0.389-9.39,7.375-19.709,23.292-30.961
			C199.042,153.082,200.241,153.262,201.489,153.437z M237.383,184.812c5.896,5.761,11.794,5.781,17.691,0.063l1.75,1.528
			c-0.903,4.347-4.212,6.553-9.928,6.618c-5.896,0.126-9.884-2.08-11.964-6.618L237.383,184.812z M240.278,172.656
			c-5.181,3.879-8.744,3.879-10.691,0C233.797,169.101,237.36,169.101,240.278,172.656z M253.006,173.77l1.273-1.622
			c3.086-3.24,6.818-3.24,11.201,0C261.98,174.991,257.822,175.532,253.006,173.77z M210.845,176.315
			c-2.559-1.854-5.072-3.073-7.542-3.659c-7.289-2.002-12.868-0.305-16.737,5.091c-5.809,8.283-5.809,14.309,0,18.074
			c9.333-0.735,18.667,0.621,28.001,4.073l15.783,2.355c0.562-3.191-1.982-7.624-7.637-13.302c-0.893-1.241-1.783-2.408-2.674-3.5
			c-1.422-1.783-2.832-3.385-4.231-4.806C214.137,178.94,212.481,177.498,210.845,176.315z M271.176,218.223
			c-0.247-0.759-0.683-1.438-1.305-2.037c-0.977-1.018-2.207-1.526-3.69-1.526c-1.485,0-2.737,0.509-3.755,1.526
			c-0.699,0.699-1.155,1.506-1.369,2.419c-6.789,3.641-10.278,7.417-10.468,11.329c-0.535,5.454,2.944,8.339,10.437,8.654
			c4.201,0.68,8.933,0.022,14.191-1.973l-7.573,3.69c-16.026,1.878-31.767,1.284-47.222-1.781l-0.668-1.305
			c4.254,2.484,9.992,3.068,17.215,1.75c4.496-0.948,6.787-2.603,6.873-4.965c0.07-3.701-1.797-7.627-5.601-11.773l-4.614-5.186
			c-0.208-0.306-0.452-0.592-0.731-0.86c-0.976-1.018-2.206-1.526-3.69-1.526c-1.485,0-2.737,0.509-3.755,1.526
			c-1.019,1.02-1.528,2.271-1.528,3.756c0,1.442,0.51,2.673,1.528,3.691c0.478,0.498,1.009,0.88,1.591,1.145
			c-1.759,0.484-3.668-0.088-5.728-1.718c-3.26-4.579-3.812-8.313-1.654-11.2c2.215-2.535,5.439-3.892,9.673-4.073
			c5.242-0.04,11.31,4.372,18.201,13.237c7.02-9.659,13.468-13.901,19.347-12.728c7.808-0.055,11.244,3.169,10.31,9.673
			C276.309,220.78,274.303,220.865,271.176,218.223z M204.067,263.472c12.049,4.677,18.965,13.364,20.746,26.06
			c1.778,12.691,1.057,19.754-2.164,21.193c-0.898-0.6-1.789-1.234-2.673-1.91c2.488-3.359,3.23-7.59,2.228-12.695
			c-3.812-15.295-10.186-24.417-19.124-27.365C203.292,266.965,203.621,265.205,204.067,263.472z M273.785,264.299l-7.796,27.747
			l-6.873-25.711l7.128-16.037C269.97,253.396,272.484,258.064,273.785,264.299z M291.827,266.558
			c-9.588,7.301-15.825,18.258-18.71,32.871c-0.53,4.019-0.042,7.021,1.463,9.005c-1.111,0.811-2.256,1.594-3.437,2.354
			c-1.727-4.078-2.173-8.799-1.336-14.159c2.223-14.618,9.021-26.794,20.397-36.53C290.841,262.134,291.382,264.287,291.827,266.558
			z M254.344,264.744l-14.83,0.51l7.128-17.756L254.344,264.744z M234.805,265.921l-4.709,28.161l-8.655-28.828
			c2.097-6.702,4.388-10.924,6.873-12.665L234.805,265.921z M275.917,342.449c-5.208,7.18-13.863,10.914-25.966,11.199
			c-17.536-0.373-27.04-4.617-28.511-12.729c6.062,6.078,15.142,9.471,27.238,10.184
			C258.377,351.002,267.457,348.117,275.917,342.449z"/>
		<path fill-rule="evenodd" clip-rule="evenodd" fill="#A3A3A5" d="M303.506,115.603c11.964-12.899,24.574-19.507,37.834-19.824
			c5.743,0.063,10.581,1.335,14.51,3.818c-8.572,0.622-14.427,3.421-17.565,8.401c-6.061,10.026-13.92,19.752-23.578,29.179
			c-4.237-4.884-9.104-8.925-14.606-12.124c-1.085-0.647-2.124-1.209-3.117-1.687C299.138,120.567,301.313,117.979,303.506,115.603z
			 M361.449,233.242c-27.387,10.949-46.723,30.508-58.008,58.676c-2.437-7.34-5.205-12.356-8.305-15.05
			c2.5-7.703,3.391-14.904,2.673-21.606c6.882-1.788,12.481-5.818,16.801-12.092c2.068-3.039,3.172-6.201,3.309-9.482
			c4.447-0.433,7.417-1.939,8.91-4.519c1.962,3.299,4.594,5.929,7.892,7.892c3.348-1.469,4.79-5.797,4.328-12.983
			c2.308,2.305,4.939,3.323,7.892,3.056c2.672-5.098,2.672-10.526,0-16.292c-3.639-7.224-5.421-12.061-5.347-14.51
			c1.671-4.138,1.12-6.959-1.654-8.465c-1.924-1.003-3.748-2.679-5.474-5.027c1.786-1.859,3.908-3.047,6.364-3.563l-4.837-7.892
			h6.364c15.764,6.301,24.758,20.047,26.983,41.238c-3.224-1.018-5.77-1.018-7.637,0c3.266,4.413,4.878,8.825,4.837,13.238h-3.309
			c3.883,2.457,5.579,5.851,5.091,10.183C366.368,233.764,364.077,232.831,361.449,233.242z M178.419,232.987
			c-1.446,10.043,4.791,18.635,18.71,25.774c-0.192,5.947,0.752,12.015,2.832,18.201c-0.936,4.734-3.291,8.616-7.064,11.646
			c-10.859-23.365-30.068-39.806-57.626-49.321c-0.357-1.735-0.569-3.667-0.637-5.791c-3.595,1.281-5.208,2.894-4.836,4.836
			c-4.865-3.16-4.865-7.233,0-12.218c-0.228-0.622-0.366-1.196-0.414-1.72c-0.138-1.902,0.934-3.195,3.213-3.882
			c-1.764-2.12-0.831-4.243,2.801-6.363c-4.136,1.204-6.766,1.204-7.892,0c4.658-24.648,11.362-36.612,20.111-35.894
			c0.871-4.022,2.059-6.144,3.564-6.364c0.24,1.5,2.106,2.349,5.6,2.546c-3.005,2.121-4.109,4.242-3.309,6.363
			c0.481,2.016,2.179,3.118,5.091,3.31l-2.8,2.801c-4.141,1.815-5.838,3.938-5.091,6.364c0.4,1.836,1.419,3.362,3.055,4.582
			c-6.474,9.18-8.935,19.361-7.382,30.547L155,225.86c0.304,6.372,2.171,10.869,5.6,13.491l7.637-8.655l4.583,5.092
			C174.362,233.882,176.229,232.949,178.419,232.987z M188.348,114.107c2.921,3.539,4.841,7.41,5.759,11.615
			c-5.738,3.166-10.638,7.176-14.701,12.028c-18.656-18.992-28.064-30.013-28.225-33.062c-5.578-0.585-10.032-2.292-13.365-5.123
			c2.299-1.773,5.905-2.527,10.819-2.259C163.034,97.973,176.271,103.574,188.348,114.107z"/>
		<path fill-rule="evenodd" clip-rule="evenodd" fill="#675D66" d="M341.594,129.126l-10.182,16.801
			c-1.73,2.648,1.578,4.685,9.928,6.11l-5.092,3.818h6.619c-0.273,1.254-0.866,2.379-1.782,3.373
			c-1.081,1.177-2.608,2.174-4.582,2.991c3.626,1.715,5.577,4.77,5.854,9.164h-6.364l4.837,7.892
			c-2.456,0.517-4.578,1.704-6.364,3.563c1.726,2.349,3.55,4.024,5.474,5.027c2.774,1.506,3.325,4.327,1.654,8.465
			c-0.074,2.449,1.708,7.286,5.347,14.51c2.672,5.766,2.672,11.194,0,16.292c-2.952,0.268-5.584-0.751-7.892-3.056
			c0.462,7.187-0.98,11.515-4.328,12.983c-3.298-1.963-5.93-4.593-7.892-7.892c-1.493,2.579-4.463,4.086-8.91,4.519
			c0.144-3.727-0.961-7.607-3.309-11.646c-1.382-9.14-6.644-14.4-15.783-15.784c-7.325-1.378-14.791,0.531-22.401,5.729
			c1.165-2.886,0.571-5.305-1.782-7.256c0.123-0.159,0.25-0.318,0.383-0.478c3.804-4.196,13.521-5.733,29.146-4.613
			c9.521-0.342,14.442-4.669,14.766-12.982c0.561-8.773-4.36-18.192-14.766-28.256c-2.988-3.152-6.297-5.019-9.928-5.601
			c5.461-3.65,9.618-5.348,12.474-5.091c5.305-1.628,8.954-3.919,10.947-6.873c-0.949-1.271-1.936-2.491-2.96-3.659
			c9.658-9.427,17.518-19.153,23.578-29.179c3.139-4.979,8.993-7.779,17.565-8.401c0.374,1.735-2.936,6.232-9.929,13.492
			C343.501,115.826,342.058,121.171,341.594,129.126z M162.637,148.982c-5.331-6.865-9.319-13.059-11.964-18.583l-3.055-8.91
			c-1.022-4.647-2.38-7.617-4.073-8.91c-3.375-2.235-6.09-5.46-8.146-9.673c0.493-1.36,1.299-2.474,2.418-3.341
			c3.333,2.831,7.787,4.538,13.365,5.123c0.161,3.048,9.569,14.069,28.225,33.062c-1.556,1.835-2.988,3.797-4.296,5.887
			c1.316,0.078,2.589,0.13,3.819,0.159c-0.126,3.95,6.196,6.983,18.964,9.101c-15.917,11.252-23.681,21.572-23.292,30.961
			c0.542,12.561,4.955,18.668,13.238,18.328c12.803-1.351,23.07-0.184,30.802,3.5c-2.187,1.236-1.848,3.294,1.019,6.174
			c-9.705-5.271-18.615-6.629-26.729-4.073c-5.821,1.934-9.767,7.194-11.837,15.783c-2.127,2.866-3.019,6.006-2.673,9.418
			c-2.191-0.038-4.057,0.895-5.6,2.801l-4.583-5.092l-7.637,8.655c-3.429-2.622-5.296-7.119-5.6-13.491l-8.655,2.545
			c-1.552-11.186,0.908-21.367,7.382-30.547c-1.636-1.22-2.654-2.746-3.055-4.582c-0.747-2.427,0.95-4.549,5.091-6.364l2.8-2.801
			c-2.913-0.191-4.61-1.294-5.091-3.31c-0.8-2.121,0.304-4.242,3.309-6.363c-3.494-0.197-5.36-1.046-5.6-2.546l7.127-7.127
			c-4.478-0.715-7.023-2.072-7.637-4.073c0.015-1.076,0.217-2.104,0.605-3.087C152.684,154.136,156.47,151.262,162.637,148.982z
			 M219.977,308.814c-5.306-4.139-10.248-9.812-14.828-17.023c0.791,5.691,3.125,11.473,7,17.342l-10.818,7.096
			c-1.75-10.082-4.562-19.289-8.433-27.619c3.774-3.03,6.129-6.912,7.064-11.646c1.185,3.546,2.743,7.132,4.678,10.755
			c-1.802-6.612-2.321-12.935-1.56-18.964c8.938,2.948,15.312,12.07,19.124,27.365C223.207,301.225,222.465,305.455,219.977,308.814
			z M303.441,291.918c-2.796,6.983-5.098,14.492-6.905,22.529l-10.882-9.037c3.224-5.707,5.494-11.265,6.809-16.674
			c-4.693,7.826-10.654,14.393-17.883,19.697c-1.505-1.984-1.993-4.986-1.463-9.005c2.885-14.613,9.122-25.57,18.71-32.871
			c0.891,4.688,1.358,9.873,1.4,15.561c0.721-1.778,1.357-3.528,1.909-5.25C298.236,279.562,301.005,284.578,303.441,291.918z"/>
		<path fill-rule="evenodd" clip-rule="evenodd" fill="#D2D1CC" d="M331.412,145.927l10.182-16.801
			c5.611,2.209,9.229,6.081,10.852,11.615C346.008,142.961,338.996,144.69,331.412,145.927z M294.245,152.8
			c-7.244,10.472-17.108,21.207-29.593,32.203c0.559-3.737,2.107-7.598,4.646-11.583c1.29-1.818,2.436-3.675,3.436-5.568
			c-1,1.894-2.146,3.75-3.436,5.568c-2.539,3.985-4.088,7.846-4.646,11.583l-1.464,10.31c-0.763,3.188-2.067,5.522-3.913,7.001
			c-1.491,1.182-3.326,1.818-5.505,1.909c-0.062-0.007-0.127-0.018-0.191-0.033c-4.75-0.55-6.893-2.745-6.428-6.586
			c-0.774,4.569-3.172,6.543-7.191,5.919c-0.83-0.164-1.615-0.388-2.355-0.669c-4.525-1.755-7.113-5.797-7.763-12.123
			c-0.098-2.821-0.416-5.432-0.955-7.828c-0.83-3.786-2.209-7.031-4.137-9.737c-1.235-1.526-2.232-3.053-2.991-4.581
			c0.759,1.528,1.756,3.055,2.991,4.581c1.928,2.706,3.307,5.951,4.137,9.737c-15.402-8.172-24.534-17.993-27.397-29.466
			c2.189,0.293,4.534,0.569,7.032,0.828c-2.498-0.259-4.843-0.535-7.032-0.828c-1.248-0.174-2.447-0.354-3.596-0.541
			c-12.769-2.117-19.09-5.151-18.964-9.101c11.171,0.177,18.808-1.997,22.911-6.523c2.815-3.855,6.315-6.803,10.5-8.846
			c-2.076,2.25-3.54,6.131-4.391,11.646c0.851-5.515,2.314-9.396,4.391-11.646c-4.185,2.043-7.685,4.991-10.5,8.846
			c-4.103,4.526-11.74,6.7-22.911,6.523c-1.23-0.028-2.503-0.081-3.819-0.159c1.308-2.09,2.74-4.052,4.296-5.887
			c4.062-4.853,8.962-8.862,14.701-12.028c-0.918-4.205-2.838-8.076-5.759-11.615c0.002-6.786,3.142-10.435,9.419-10.946
			c-1.029-7.95,2.959-11.768,11.964-11.455c1.499-4.702,5.571-8.118,12.219-10.246h15.847c10.998-0.096,22.029-0.255,33.094-0.477
			c5.749,2.599,9.547,6.173,11.391,10.723c8.064-0.126,11.968,3.269,11.71,10.183c4.827,1.923,7.999,6.495,9.516,13.715
			c-2.192,2.375-4.368,4.964-6.523,7.764c-6.979-3.461-11.455-2.899-13.429,1.687c-1.969,4.741,0.068,8.813,6.11,12.219
			c8.675,4.483,18.008,5.671,28.002,3.563c-9.994,2.107-19.327,0.919-28.002-3.563c-6.042-3.406-8.079-7.479-6.11-12.219
			c1.974-4.586,6.449-5.147,13.429-1.687c0.993,0.477,2.032,1.04,3.117,1.687c5.502,3.199,10.369,7.24,14.606,12.124
			c1.024,1.168,2.011,2.388,2.96,3.659c-1.993,2.954-5.643,5.245-10.947,6.873C303.863,147.453,299.706,149.15,294.245,152.8
			c-3.57-0.112-6.582-0.081-9.036,0.096C287.663,152.72,290.675,152.688,294.245,152.8z M284.189,330.484
			c3.405-7.236,3.395-14.756-0.03-22.561c0.516-0.844,1.014-1.682,1.495-2.514l10.882,9.037c1.808-8.037,4.109-15.546,6.905-22.529
			c11.285-28.168,30.621-47.727,58.008-58.676c-0.011,5.58-2.131,9.652-6.363,12.219c-3.141,1.883-4.754,4.684-4.837,8.4
			c1.657,9.492-0.804,16.45-7.382,20.874c-0.177,7.97-2.893,13.4-8.146,16.293c0.325,6.357-2.051,11.704-7.127,16.036
			c0.88,7.592-2.091,14.295-8.91,20.109c0.364,4.244-2.775,8.486-9.419,12.729c-1.867,5.262-5.771,9.164-11.71,11.711
			c-3.436,8.385-10.903,12.119-22.401,11.199c-3.903,2.92-7.807,3.938-11.71,3.057c-4.921,1.895-9.843,1.895-14.765,0
			c-4.497,2.586-8.995,2.586-13.492,0c-4.422,0.189-8.241-0.828-11.455-3.057c-5.006,1.568-10.013,1.568-15.019,0
			c-4.497-1.443-7.637-4.922-9.419-10.438l-6.619-3.053c-2.948-2.26-4.646-5.145-5.091-8.654c-2.524-0.404-4.879-1.613-7.064-3.629
			c-2.974-2.727-4.268-6.525-3.882-11.393c-4.166-1.057-6.711-2.838-7.637-5.344c-1.578-4.42-1.917-8.322-1.018-11.711
			c-3.71-1.201-6.086-3.066-7.128-5.6c-0.945-4.195-0.945-7.758,0-10.691c-3.938-1.698-6.229-3.395-6.873-5.091
			c-1.299-3.255-1.299-7.158,0-11.71l-5.6-3.056c-3.708-2.626-4.726-5.851-3.056-9.673c0.828-3.543,0.828-6.259,0-8.146
			c-0.796-3.093-1.899-4.959-3.309-5.6c-2.055-0.491-3.498-1.595-4.328-3.311c-1.108-1.737-1.914-3.88-2.418-6.427
			c27.558,9.516,46.767,25.956,57.626,49.321c3.871,8.33,6.683,17.537,8.433,27.619l10.818-7.096
			c0.519,0.773,1.06,1.547,1.624,2.322c-4.078,5.57-4.089,13.016-0.032,22.338c5.142,2.697,7.709,5.074,7.7,7.127
			c1.471,8.111,10.975,12.355,28.511,12.729c12.103-0.285,20.758-4.02,25.966-11.199
			C276.38,338.133,279.137,334.145,284.189,330.484z M150.672,130.399c2.646,5.523,6.634,11.718,11.964,18.583
			c-8.272-0.551-16.036-2.111-23.292-4.677C141.159,137.381,144.934,132.746,150.672,130.399z M274.644,204.73
			c-2.042-2.849-5.596-3.973-10.659-3.372c0.197-5.506,3.028-11.275,8.497-17.311c4.538,6.019,9.798,8.076,15.781,6.174
			c6.067-2.985,8.231-8.246,6.492-15.783c-0.479-1.604-1.785-2.876-3.914-3.819c2-1.008,4.153-2.026,6.46-3.054
			c4.448-1.043,8.606,5.745,12.474,20.364c0.938,5.07-2.541,7.616-10.438,7.637c-7.844-0.29-14.376,0.727-19.602,3.055
			c-3.52,1.879-5.089,3.756-4.709,5.632C274.894,204.412,274.767,204.571,274.644,204.73z M194.107,125.722
			c1.428-0.784,2.903-1.516,4.423-2.196c7.782-3.453,12.386-1.819,13.81,4.9c2.079-2.253,4.773-2.869,8.082-1.845
			c6.872,3.028,15.612,3.877,26.22,2.545c7.395,1.164,13.335,1.164,17.819,0c5.589-2.905,10.595-2.905,15.021,0
			c-4.426-2.905-9.432-2.905-15.021,0c-4.484,1.164-10.425,1.164-17.819,0c-10.607,1.332-19.348,0.482-26.22-2.545
			c-3.309-1.023-6.003-0.408-8.082,1.845c-1.424-6.72-6.027-8.353-13.81-4.9C197.01,124.206,195.535,124.938,194.107,125.722z
			 M209.062,148.918c-0.339,1.558-0.519,3.34-0.541,5.346c1.054,0.11,2.136,0.217,3.246,0.318c4.073,0.509,6.788,2.715,8.146,6.618
			c-0.001,2.462,0.613,4.922,1.846,7.383c7.32,0.132,12.984-4.704,16.992-14.511c3.726-7.268,6.44-10.832,8.146-10.691
			c2.291-0.741,4.583,2.229,6.874,8.91c3.262,9.081,9.583,14.267,18.964,15.56c2.103-3.928,3.588-8.012,4.455-12.251
			c0.396-1.476,3.067-2.377,8.02-2.705c0.241-1.678,0.21-3.215-0.096-4.614c0.306,1.398,0.337,2.936,0.096,4.614
			c-4.952,0.328-7.624,1.229-8.02,2.705c-0.867,4.239-2.353,8.323-4.455,12.251c-9.381-1.293-15.702-6.479-18.964-15.56
			c-2.291-6.681-4.583-9.651-6.874-8.91c-1.705-0.141-4.42,3.424-8.146,10.691c-4.008,9.807-9.672,14.643-16.992,14.511
			c-1.232-2.461-1.847-4.921-1.846-7.383c-1.357-3.903-4.072-6.109-8.146-6.618c-1.11-0.102-2.192-0.208-3.246-0.318
			C208.544,152.258,208.724,150.477,209.062,148.918c10.78-1.069,14.736-3.763,11.869-8.083
			C214.397,139.957,210.441,142.651,209.062,148.918z M285.113,148.282c-0.817-3.693-3.544-6.43-8.178-8.21
			c-4.44-1.171-7.241,0.611-8.401,5.346C274.388,148.334,279.914,149.288,285.113,148.282z M253.006,173.77l-4.327,5.506l6.396,5.6
			c-5.897,5.718-11.795,5.697-17.691-0.063l8.495-5.536l-5.6-6.619l5.6,6.619l-8.495,5.536l-2.45,1.592
			c2.08,4.538,6.068,6.744,11.964,6.618c5.716-0.065,9.024-2.271,9.928-6.618l-1.75-1.528l-6.396-5.6L253.006,173.77
			c4.816,1.763,8.975,1.222,12.475-1.622c-4.383-3.24-8.115-3.24-11.201,0L253.006,173.77z M240.278,172.656
			c-2.918-3.556-6.481-3.556-10.691,0C231.534,176.535,235.098,176.535,240.278,172.656z M203.303,172.656
			c-4.853,5.508-6.274,9.708-4.264,12.601c2.895,3.979,7.137,6.609,12.729,7.892c2.917,0.615,5.675-1.951,8.272-7.7
			c0.891,1.092,1.781,2.259,2.674,3.5c5.654,5.678,8.199,10.11,7.637,13.302l-15.783-2.355c-9.334-3.452-18.668-4.809-28.001-4.073
			c-5.809-3.766-5.809-9.791,0-18.074C190.435,172.352,196.014,170.654,203.303,172.656z"/>
		<path fill-rule="evenodd" clip-rule="evenodd" fill="#090A04" d="M210.845,176.315c1.637,1.183,3.292,2.625,4.964,4.327
			c0.165,2.886-1.013,4.763-3.532,5.633c-3.526,1.331-5.775,0.736-6.746-1.781C203.98,179.609,205.752,176.884,210.845,176.315z
			 M276.141,180.103c2.298-2.123,5.363-4.297,9.195-6.523c1.1,0.593,2.257,2.067,3.468,4.423c1.213,2.346,0.164,4.594-3.149,6.746
			C282.343,186.905,279.172,185.357,276.141,180.103z"/>
		<path fill-rule="evenodd" clip-rule="evenodd" fill="#AA2D4D" d="M203.303,172.656c2.47,0.586,4.983,1.806,7.542,3.659
			c-5.093,0.568-6.864,3.294-5.314,8.179c0.971,2.518,3.22,3.112,6.746,1.781c2.52-0.87,3.697-2.747,3.532-5.633
			c1.399,1.421,2.81,3.022,4.231,4.806c-2.598,5.749-5.355,8.315-8.272,7.7c-5.592-1.282-9.834-3.913-12.729-7.892
			C197.028,182.364,198.45,178.164,203.303,172.656z M233.627,217.046c0.573,0.835,0.86,1.802,0.86,2.896
			c0,1.442-0.531,2.673-1.592,3.691c-0.976,1.061-2.206,1.591-3.69,1.591c-0.308,0-0.604-0.021-0.892-0.063
			c-0.449-0.072-0.874-0.2-1.272-0.383c-0.582-0.265-1.113-0.646-1.591-1.145c-1.019-1.019-1.528-2.249-1.528-3.691
			c0-1.485,0.51-2.736,1.528-3.756c1.018-1.018,2.27-1.526,3.755-1.526c1.484,0,2.715,0.509,3.69,1.526
			C233.175,216.454,233.419,216.74,233.627,217.046z M198.53,248.897c-7.036-2.264-10.26-6.591-9.674-12.983
			c0.586-6.699,4.362-9.521,11.328-8.463c6.871,1.136,12.514,3.745,16.929,7.827c0.803,0.742,1.683,1.39,2.641,1.941l0.668,1.305
			c-5.298-1.046-10.559-2.384-15.782-4.01C201.808,239.226,199.771,244.02,198.53,248.897z M295.963,246.829
			c-1.258-3.781-3.104-7.377-5.536-10.786c-7.656,1.97-15.251,3.391-22.783,4.263l7.573-3.69c5.049-1.927,10.585-5.087,16.61-9.482
			c6.381-4.138,11.219-3.375,14.51,2.291C309.452,234.863,305.994,240.665,295.963,246.829z M271.176,218.223
			c0.191,0.532,0.286,1.105,0.286,1.719c0,1.442-0.529,2.673-1.591,3.691c-0.977,1.061-2.207,1.591-3.69,1.591
			c-1.485,0-2.737-0.53-3.755-1.591c-1.019-1.019-1.528-2.249-1.528-3.691c0-0.467,0.054-0.911,0.159-1.337
			c0.214-0.913,0.67-1.72,1.369-2.419c1.018-1.018,2.27-1.526,3.755-1.526c1.483,0,2.714,0.509,3.69,1.526
			C270.493,216.785,270.929,217.464,271.176,218.223z M272.481,184.048c0.289-0.316,0.586-0.635,0.89-0.954
			c0.748-0.982,1.672-1.979,2.77-2.991c3.031,5.255,6.202,6.803,9.514,4.646c3.313-2.152,4.362-4.4,3.149-6.746
			c-1.211-2.355-2.368-3.83-3.468-4.423c1.685-0.977,3.519-1.963,5.505-2.96c2.129,0.943,3.435,2.216,3.914,3.819
			c1.739,7.537-0.425,12.798-6.492,15.783C282.279,192.124,277.02,190.066,272.481,184.048z"/>
		<path fill-rule="evenodd" clip-rule="evenodd" fill="#D6DFCE" d="M197.13,258.762c-13.92-7.14-20.157-15.731-18.71-25.774
			c-0.346-3.412,0.545-6.552,2.673-9.418c2.07-8.589,6.016-13.85,11.837-15.783c8.114-2.556,17.024-1.198,26.729,4.073
			c-2.866-2.88-3.205-4.938-1.019-6.174c3.173-1.789,7.076-2.935,11.71-3.436c2.777-0.049,5.196,0.152,7.254,0.604
			c0.74,0.281,1.525,0.505,2.355,0.669c4.02,0.624,6.417-1.35,7.191-5.919c-0.465,3.841,1.678,6.036,6.428,6.586
			c0.064,0.016,0.129,0.026,0.191,0.033c2.179-0.091,4.014-0.728,5.505-1.909c1.69-0.455,3.261-0.773,4.709-0.955
			c5.063-0.601,8.617,0.523,10.659,3.372c2.354,1.951,2.947,4.37,1.782,7.256c7.61-5.197,15.076-7.106,22.401-5.729
			c9.14,1.384,14.401,6.645,15.783,15.784c2.348,4.038,3.452,7.919,3.309,11.646c-0.137,3.281-1.24,6.443-3.309,9.482
			c-4.319,6.273-9.919,10.304-16.801,12.092c-0.308-2.91-0.923-5.721-1.847-8.433c10.031-6.164,13.489-11.966,10.374-17.405
			c-3.291-5.666-8.129-6.429-14.51-2.291c-6.025,4.396-11.562,7.556-16.61,9.482c-5.259,1.995-9.99,2.652-14.191,1.973
			c-7.492-0.315-10.972-3.2-10.437-8.654c0.189-3.912,3.679-7.688,10.468-11.329c-0.105,0.426-0.159,0.87-0.159,1.337
			c0,1.442,0.51,2.673,1.528,3.691c1.018,1.061,2.27,1.591,3.755,1.591c1.483,0,2.714-0.53,3.69-1.591
			c1.062-1.019,1.591-2.249,1.591-3.691c0-0.613-0.095-1.187-0.286-1.719c3.127,2.643,5.133,2.558,6.014-0.254
			c0.935-6.504-2.502-9.728-10.31-9.673c-5.879-1.174-12.327,3.068-19.347,12.728c-6.892-8.865-12.959-13.277-18.201-13.237
			c-4.233,0.182-7.458,1.538-9.673,4.073c-2.157,2.887-1.605,6.621,1.654,11.2c2.06,1.63,3.969,2.202,5.728,1.718
			c0.398,0.183,0.823,0.311,1.272,0.383c0.287,0.042,0.584,0.063,0.892,0.063c1.484,0,2.715-0.53,3.69-1.591
			c1.061-1.019,1.592-2.249,1.592-3.691c0-1.094-0.287-2.061-0.86-2.896l4.614,5.186c3.804,4.146,5.671,8.072,5.601,11.773
			c-0.086,2.362-2.377,4.017-6.873,4.965c-7.223,1.318-12.961,0.734-17.215-1.75c-0.958-0.552-1.838-1.199-2.641-1.941
			c-4.415-4.082-10.058-6.691-16.929-7.827c-6.966-1.058-10.742,1.764-11.328,8.463c-0.586,6.393,2.638,10.72,9.674,12.983
			C197.712,252.149,197.245,255.437,197.13,258.762z M298.573,213.387c6.533,1.399,11.878,4.286,16.037,8.655
			C310.451,217.673,305.106,214.786,298.573,213.387z M193.693,214.659c-5.896,2.595-10.096,5.563-12.601,8.91
			C183.597,220.223,187.797,217.254,193.693,214.659z"/>
		<path fill-rule="evenodd" clip-rule="evenodd" fill="#3E3C3D" d="M342.867,155.855c30.072-8.971,49.164-21.678,57.276-38.121
			l7.636-17.628c-1.266,16.422-10.791,30.826-28.574,43.212c-10.914,7.646-23.621,12.949-38.12,15.91
			C342.001,158.234,342.594,157.109,342.867,155.855z M151.277,157.605c-0.388,0.982-0.59,2.011-0.605,3.087
			c-16.517-2.471-30.432-7.817-41.748-16.038c-12.695-9.765-20.841-23.342-24.438-40.729c5.262,16.924,14.681,30.331,28.257,40.221
			C123.393,150.827,136.238,155.313,151.277,157.605z"/>
		<path fill-rule="evenodd" clip-rule="evenodd" fill="#F9A93A" d="M204.067,263.472c-0.446,1.733-0.775,3.493-0.987,5.282
			c-0.762,6.029-0.242,12.352,1.56,18.964c-1.935-3.623-3.493-7.209-4.678-10.755c-2.08-6.187-3.024-12.254-2.832-18.201
			c0.115-3.325,0.582-6.612,1.4-9.864c1.24-4.878,3.277-9.672,6.109-14.383c5.224,1.626,10.484,2.964,15.782,4.01
			c15.455,3.065,31.195,3.659,47.222,1.781c7.532-0.872,15.127-2.293,22.783-4.263c2.433,3.409,4.278,7.005,5.536,10.786
			c0.924,2.712,1.539,5.522,1.847,8.433c0.718,6.702-0.173,13.903-2.673,21.606c-0.552,1.722-1.188,3.472-1.909,5.25
			c-0.042-5.688-0.51-10.873-1.4-15.561c-0.445-2.271-0.986-4.424-1.622-6.46c-2.09-6.619-5.239-12.007-9.451-16.163
			c0.137,9.305-1.899,18.299-6.11,26.982c-0.16-2.374-0.447-4.581-0.858-6.618c-1.301-6.234-3.815-10.902-7.541-14.001
			l-7.128,16.037l-2.037,4.582l-2.735-6.173l-7.702-17.246l-7.128,17.756l-2.29,5.663l-2.419-4.996l-6.491-13.332
			c-2.485,1.741-4.776,5.963-6.873,12.665c-0.437,1.359-0.86,2.822-1.272,4.39l-7.128-23.674
			C208.642,251.484,205.65,257.318,204.067,263.472z M222.649,310.725c3.435,2.281,7.021,3.947,10.756,4.994
			c-2.766-6.703-2.766-13.406,0-20.109l7.892,17.564l7.637-16.546l7.891,14.511l6.619-14.766l2.801,17.311
			c1.687-0.908,3.319-1.875,4.899-2.896c1.181-0.76,2.325-1.543,3.437-2.354c7.229-5.305,13.189-11.871,17.883-19.697
			c-1.314,5.409-3.585,10.967-6.809,16.674c-0.481,0.832-0.979,1.67-1.495,2.514c-2.438,3.975-5.334,8.016-8.688,12.123
			c-1.23,1.521-2.524,3.049-3.882,4.582c-8.174-1.461-15.472-1.461-21.894,0c-8.962-1.971-16.938-1.971-23.929,0
			c-1.766-1.619-3.421-3.232-4.963-4.836c-2.686-2.801-5.029-5.58-7.032-8.338c-0.564-0.775-1.105-1.549-1.624-2.322
			c-3.875-5.869-6.209-11.65-7-17.342c4.58,7.211,9.522,12.885,14.828,17.023C220.86,309.49,221.751,310.125,222.649,310.725z"/>
		<path fill-rule="evenodd" clip-rule="evenodd" fill="#B22C33" d="M239.514,265.254l14.83-0.51l2.735,6.173l2.037-4.582
			l6.873,25.711l7.796-27.747c0.411,2.037,0.698,4.244,0.858,6.618c4.211-8.684,6.247-17.678,6.11-26.982
			c4.212,4.156,7.361,9.544,9.451,16.163c-11.376,9.736-18.175,21.912-20.397,36.53c-0.837,5.36-0.391,10.081,1.336,14.159
			c-1.58,1.021-3.213,1.988-4.899,2.896l-2.801-17.311l-6.619,14.766l-7.891-14.511l-7.637,16.546l-7.892-17.564
			c-2.766,6.703-2.766,13.406,0,20.109c-3.735-1.047-7.321-2.713-10.756-4.994c3.221-1.439,3.942-8.502,2.164-21.193
			c-1.781-12.695-8.697-21.383-20.746-26.06c1.583-6.153,4.574-11.987,8.973-17.502l7.128,23.674c0.412-1.567,0.836-3.03,1.272-4.39
			l8.655,28.828l4.709-28.161l2.419,4.996L239.514,265.254z M275.472,320.047c2.251,0.508,2.908,2.289,1.973,5.346
			c-1.958,2.344-5.776,3.447-11.455,3.311c-13.789-0.133-24.989,0.885-33.603,3.055c-2.737-2.736-6.598-4.35-11.582-4.838v-7.127
			c1.542,1.604,3.197,3.217,4.963,4.836c6.991-1.971,14.967-1.971,23.929,0c6.422-1.461,13.72-1.461,21.894,0
			C272.947,323.096,274.241,321.568,275.472,320.047z"/>
		<path fill-rule="evenodd" clip-rule="evenodd" fill="#E5D3DF" d="M284.159,307.924c3.425,7.805,3.436,15.324,0.03,22.561
			c-5.865-0.629-11.423,0.898-16.673,4.582l-35.385,1.273c-6.131-2.533-12.261-3.381-18.392-2.547
			c-4.057-9.322-4.046-16.768,0.032-22.338c2.003,2.758,4.347,5.537,7.032,8.338v7.127c4.984,0.488,8.845,2.102,11.582,4.838
			c8.613-2.17,19.813-3.188,33.603-3.055c5.679,0.137,9.497-0.967,11.455-3.311c0.936-3.057,0.278-4.838-1.973-5.346
			C278.825,315.939,281.722,311.898,284.159,307.924z"/>
		<path fill-rule="evenodd" clip-rule="evenodd" fill="#584E56" d="M213.74,333.793c6.131-0.834,12.261,0.014,18.392,2.547
			l35.385-1.273c5.25-3.684,10.808-5.211,16.673-4.582c-5.053,3.66-7.81,7.648-8.272,11.965c-8.46,5.668-17.54,8.553-27.238,8.654
			c-12.097-0.713-21.176-4.105-27.238-10.184C221.449,338.867,218.882,336.49,213.74,333.793z"/>
		
			<path fill-rule="evenodd" clip-rule="evenodd" fill="none" stroke="#000000" stroke-linecap="round" stroke-linejoin="round" stroke-miterlimit="3" d="
			M270.89,80.982c5.749,2.599,9.547,6.173,11.391,10.723c8.064-0.126,11.968,3.269,11.71,10.183
			c4.827,1.923,7.999,6.495,9.516,13.715c11.964-12.899,24.574-19.507,37.834-19.824c5.743,0.063,10.581,1.335,14.51,3.818
			c0.374,1.735-2.936,6.232-9.929,13.492c-2.42,2.737-3.863,8.082-4.327,16.038c5.611,2.209,9.229,6.081,10.852,11.615
			 M369.341,212.622c-3.224-1.018-5.77-1.018-7.637,0c3.266,4.413,4.878,8.825,4.837,13.238h-3.309
			c3.883,2.457,5.579,5.851,5.091,10.183c-1.955-2.279-4.246-3.212-6.874-2.801c-0.011,5.58-2.131,9.652-6.363,12.219
			c-3.141,1.883-4.754,4.684-4.837,8.4c1.657,9.492-0.804,16.45-7.382,20.874c-0.177,7.97-2.893,13.4-8.146,16.293
			c0.325,6.357-2.051,11.704-7.127,16.036c0.88,7.592-2.091,14.295-8.91,20.109c0.364,4.244-2.775,8.486-9.419,12.729
			c-1.867,5.262-5.771,9.164-11.71,11.711c-3.436,8.385-10.903,12.119-22.401,11.199c-3.903,2.92-7.807,3.938-11.71,3.057
			c-4.921,1.895-9.843,1.895-14.765,0c-4.497,2.586-8.995,2.586-13.492,0c-4.422,0.189-8.241-0.828-11.455-3.057
			c-5.006,1.568-10.013,1.568-15.019,0c-4.497-1.443-7.637-4.922-9.419-10.438l-6.619-3.053c-2.948-2.26-4.646-5.145-5.091-8.654
			c-2.524-0.404-4.879-1.613-7.064-3.629c-2.974-2.727-4.268-6.525-3.882-11.393c-4.166-1.057-6.711-2.838-7.637-5.344
			c-1.578-4.42-1.917-8.322-1.018-11.711c-3.71-1.201-6.086-3.066-7.128-5.6c-0.945-4.195-0.945-7.758,0-10.691
			c-3.938-1.698-6.229-3.395-6.873-5.091c-1.299-3.255-1.299-7.158,0-11.71l-5.6-3.056c-3.708-2.626-4.726-5.851-3.056-9.673
			c0.828-3.543,0.828-6.259,0-8.146c-0.796-3.093-1.899-4.959-3.309-5.6c-2.055-0.491-3.498-1.595-4.328-3.311
			c-1.108-1.737-1.914-3.88-2.418-6.427c-0.357-1.735-0.569-3.667-0.637-5.791c-3.595,1.281-5.208,2.894-4.836,4.836
			c-4.865-3.16-4.865-7.233,0-12.218c-0.228-0.622-0.366-1.196-0.414-1.72 M139.345,144.305c1.814-6.924,5.589-11.559,11.328-13.905
			l-3.055-8.91c-1.022-4.647-2.38-7.617-4.073-8.91c-3.375-2.235-6.09-5.46-8.146-9.673c0.493-1.36,1.299-2.474,2.418-3.341
			c2.299-1.773,5.905-2.527,10.819-2.259c14.398,0.666,27.635,6.267,39.712,16.8c0.002-6.786,3.142-10.435,9.419-10.946
			c-1.029-7.95,2.959-11.768,11.964-11.455c1.499-4.702,5.571-8.118,12.219-10.246 M314.706,137.177
			c1.024,1.168,2.011,2.388,2.96,3.659c-1.993,2.954-5.643,5.245-10.947,6.873c-2.855-0.256-7.013,1.441-12.474,5.091
			 M274.644,204.73c2.354,1.951,2.947,4.37,1.782,7.256c7.61-5.197,15.076-7.106,22.401-5.729
			c9.14,1.384,14.401,6.645,15.783,15.784c2.348,4.038,3.452,7.919,3.309,11.646c4.447-0.433,7.417-1.939,8.91-4.519
			c1.962,3.299,4.594,5.929,7.892,7.892c3.348-1.469,4.79-5.797,4.328-12.983c2.308,2.305,4.939,3.323,7.892,3.056
			c2.672-5.098,2.672-10.526,0-16.292c-3.639-7.224-5.421-12.061-5.347-14.51c1.671-4.138,1.12-6.959-1.654-8.465
			c-1.924-1.003-3.748-2.679-5.474-5.027c1.786-1.859,3.908-3.047,6.364-3.563l-4.837-7.892h6.364 M331.412,145.927l10.182-16.801
			 M296.982,123.367c2.155-2.8,4.331-5.388,6.523-7.764 M314.706,137.177c-4.237-4.884-9.104-8.925-14.606-12.124
			c-1.085-0.647-2.124-1.209-3.117-1.687c-6.979-3.461-11.455-2.899-13.429,1.687c-1.969,4.741,0.068,8.813,6.11,12.219
			c8.675,4.483,18.008,5.671,28.002,3.563 M194.107,125.722c1.428-0.784,2.903-1.516,4.423-2.196
			c7.782-3.453,12.386-1.819,13.81,4.9c2.079-2.253,4.773-2.869,8.082-1.845c6.872,3.028,15.612,3.877,26.22,2.545
			c7.395,1.164,13.335,1.164,17.819,0c5.589-2.905,10.595-2.905,15.021,0 M209.062,148.918c-0.339,1.558-0.519,3.34-0.541,5.346
			c1.054,0.11,2.136,0.217,3.246,0.318c4.073,0.509,6.788,2.715,8.146,6.618c-0.001,2.462,0.613,4.922,1.846,7.383
			c7.32,0.132,12.984-4.704,16.992-14.511c3.726-7.268,6.44-10.832,8.146-10.691c2.291-0.741,4.583,2.229,6.874,8.91
			c3.262,9.081,9.583,14.267,18.964,15.56c2.103-3.928,3.588-8.012,4.455-12.251c0.396-1.476,3.067-2.377,8.02-2.705
			c0.241-1.678,0.21-3.215-0.096-4.614c-5.199,1.006-10.726,0.052-16.579-2.864c1.16-4.735,3.961-6.517,8.401-5.346
			c4.634,1.78,7.36,4.517,8.178,8.21 M285.209,152.896c2.454-0.176,5.466-0.208,9.036-0.096 M209.062,148.918
			c1.379-6.268,5.335-8.962,11.869-8.083C223.799,145.155,219.843,147.85,209.062,148.918z M207.949,140.072
			c0.851-5.515,2.314-9.396,4.391-11.646c-4.185,2.043-7.685,4.991-10.5,8.846c-4.103,4.526-11.74,6.7-22.911,6.523
			c-0.126,3.95,6.196,6.983,18.964,9.101 M201.489,153.437c2.189,0.293,4.534,0.569,7.032,0.828 M255.074,184.875l1.75,1.528
			c-0.903,4.347-4.212,6.553-9.928,6.618c-5.896,0.126-9.884-2.08-11.964-6.618l2.45-1.592l8.495-5.536l-5.6-6.619
			c-5.181,3.879-8.744,3.879-10.691,0c4.21-3.556,7.773-3.556,10.691,0 M253.006,173.77l1.273-1.622c3.086-3.24,6.818-3.24,11.201,0
			C261.98,174.991,257.822,175.532,253.006,173.77l-4.327,5.506l6.396,5.6 M237.383,184.812c5.896,5.761,11.794,5.781,17.691,0.063
			 M221.759,168.584c0.759,1.528,1.756,3.055,2.991,4.581c1.928,2.706,3.307,5.951,4.137,9.737c0.539,2.396,0.857,5.007,0.955,7.828
			c0.649,6.326,3.237,10.368,7.763,12.123c0.74,0.281,1.525,0.505,2.355,0.669c4.02,0.624,6.417-1.35,7.191-5.919
			c-0.465,3.841,1.678,6.036,6.428,6.586c0.064,0.016,0.129,0.026,0.191,0.033c2.179-0.091,4.014-0.728,5.505-1.909
			c1.846-1.479,3.15-3.812,3.913-7.001l1.464-10.31c0.559-3.737,2.107-7.598,4.646-11.583c1.29-1.818,2.436-3.675,3.436-5.568
			 M230.351,202.25c2.777-0.049,5.196,0.152,7.254,0.604 M233.627,217.046l4.614,5.186c3.804,4.146,5.671,8.072,5.601,11.773
			c-0.086,2.362-2.377,4.017-6.873,4.965c-7.223,1.318-12.961,0.734-17.215-1.75c-0.958-0.552-1.838-1.199-2.641-1.941
			c-4.415-4.082-10.058-6.691-16.929-7.827c-6.966-1.058-10.742,1.764-11.328,8.463c-0.586,6.393,2.638,10.72,9.674,12.983
			 M275.217,236.615c-5.259,1.995-9.99,2.652-14.191,1.973c-7.492-0.315-10.972-3.2-10.437-8.654
			c0.189-3.912,3.679-7.688,10.468-11.329 M218.641,205.686c-2.187,1.236-1.848,3.294,1.019,6.174 M218.641,205.686
			c3.173-1.789,7.076-2.935,11.71-3.436 M275.217,236.615c5.049-1.927,10.585-5.087,16.61-9.482
			c6.381-4.138,11.219-3.375,14.51,2.291c3.115,5.439-0.343,11.241-10.374,17.405 M297.81,255.262
			c6.882-1.788,12.481-5.818,16.801-12.092c2.068-3.039,3.172-6.201,3.309-9.482 M274.644,204.73
			c-2.042-2.849-5.596-3.973-10.659-3.372 M298.573,213.387c6.533,1.399,11.878,4.286,16.037,8.655 M179.406,137.75
			c4.062-4.853,8.962-8.862,14.701-12.028c-0.918-4.205-2.838-8.076-5.759-11.615 M178.929,143.795
			c-1.23-0.028-2.503-0.081-3.819-0.159c1.308-2.09,2.74-4.052,4.296-5.887 M151.182,171.893c0.24,1.5,2.106,2.349,5.6,2.546
			c-3.005,2.121-4.109,4.242-3.309,6.363c0.481,2.016,2.179,3.118,5.091,3.31l-2.8,2.801c-4.141,1.815-5.838,3.938-5.091,6.364
			c0.4,1.836,1.419,3.362,3.055,4.582c-6.474,9.18-8.935,19.361-7.382,30.547L155,225.86c0.304,6.372,2.171,10.869,5.6,13.491
			l7.637-8.655l4.583,5.092c1.543-1.906,3.409-2.839,5.6-2.801c-0.346-3.412,0.545-6.552,2.673-9.418
			c2.07-8.589,6.016-13.85,11.837-15.783c8.114-2.556,17.024-1.198,26.729,4.073 M193.693,214.659
			c-5.896,2.595-10.096,5.563-12.601,8.91 M162.637,148.982c-5.331-6.865-9.319-13.059-11.964-18.583 M220.805,319.793v7.127
			c4.984,0.488,8.845,2.102,11.582,4.838c8.613-2.17,19.813-3.188,33.603-3.055c5.679,0.137,9.497-0.967,11.455-3.311
			c0.936-3.057,0.278-4.838-1.973-5.346 M213.74,333.793c5.142,2.697,7.709,5.074,7.7,7.127 M275.917,342.449
			c0.463-4.316,3.22-8.305,8.272-11.965c-5.865-0.629-11.423,0.898-16.673,4.582l-35.385,1.273
			c-6.131-2.533-12.261-3.381-18.392-2.547 M213.772,311.455c-4.078,5.57-4.089,13.016-0.032,22.338 M284.159,307.924
			c3.425,7.805,3.436,15.324,0.03,22.561 M178.419,232.987c-1.446,10.043,4.791,18.635,18.71,25.774"/>
		
			<path fill-rule="evenodd" clip-rule="evenodd" fill="none" stroke="#222021" stroke-linecap="round" stroke-linejoin="round" stroke-miterlimit="3" d="
			M219.754,237.22l0.668,1.305 M267.644,240.306l7.573-3.69"/>
	</g>
</g>
</svg>
